<svg xmlns="http://www.w3.org/2000/svg" viewBox="0 0 1000 1000" role="img" aria-label="Illustrated açaí bowl topped with fresh fruit and granola"><defs>
 <radialGradient id="bowlRim"><stop stop-color="#edc4d6"/><stop offset=".83" stop-color="#fff8ed"/><stop offset="1" stop-color="#f2d9ca"/></radialGradient>
 <radialGradient id="puree" cx=".31" cy=".25"><stop stop-color="#9d4a8c"/><stop offset=".55" stop-color="#7a306e"/><stop offset="1" stop-color="#4f224f"/></radialGradient>
 <radialGradient id="banana" cx=".28" cy=".23"><stop stop-color="#fff9df"/><stop offset="1" stop-color="#f4dfac"/></radialGradient>
 <radialGradient id="strawberry" cx=".35" cy=".28"><stop stop-color="#ff8a89"/><stop offset="1" stop-color="#bf294d"/></radialGradient>
 <radialGradient id="blueberry" cx=".25" cy=".25"><stop stop-color="#7172a5"/><stop offset=".63" stop-color="#303252"/><stop offset="1" stop-color="#161a39"/></radialGradient>
 <filter id="shadow" x="-50%" y="-50%" width="200%" height="200%"><feGaussianBlur stdDeviation="22"/></filter>
 </defs><g transform="translate(500,500) rotate(0) scale(1.00000)"><ellipse cx="12" cy="34" rx="395" ry="391" fill="#472148" opacity=".22" filter="url(#shadow)"/><circle r="381" fill="url(#bowlRim)"/><circle r="356" fill="#fffaf2"/><circle r="338" fill="url(#puree)"/><circle r="332" fill="none" stroke="#e7a4ce" stroke-width="5" opacity=".44"/><path d="M 54.0 0.0 q 18 -10 35 0" fill="none" stroke="#c76caa" stroke-width="3" opacity=".19" stroke-linecap="round"/><path d="M 13.6 113.7 q 18 -10 35 0" fill="none" stroke="#c76caa" stroke-width="3" opacity=".19" stroke-linecap="round"/><path d="M -114.0 57.7 q 18 -10 35 0" fill="none" stroke="#c76caa" stroke-width="3" opacity=".19" stroke-linecap="round"/><path d="M -188.6 -161.6 q 18 -10 35 0" fill="none" stroke="#c76caa" stroke-width="3" opacity=".19" stroke-linecap="round"/><path d="M 105.7 -233.2 q 18 -10 35 0" fill="none" stroke="#c76caa" stroke-width="3" opacity=".19" stroke-linecap="round"/><path d="M 231.0 54.9 q 18 -10 35 0" fill="none" stroke="#c76caa" stroke-width="3" opacity=".19" stroke-linecap="round"/><path d="M -3.5 267.6 q 18 -10 35 0" fill="none" stroke="#c76caa" stroke-width="3" opacity=".19" stroke-linecap="round"/><path d="M -268.2 84.2 q 18 -10 35 0" fill="none" stroke="#c76caa" stroke-width="3" opacity=".19" stroke-linecap="round"/><path d="M -107.8 -132.5 q 18 -10 35 0" fill="none" stroke="#c76caa" stroke-width="3" opacity=".19" stroke-linecap="round"/><path d="M 81.7 -117.3 q 18 -10 35 0" fill="none" stroke="#c76caa" stroke-width="3" opacity=".19" stroke-linecap="round"/><path d="M 96.3 52.9 q 18 -10 35 0" fill="none" stroke="#c76caa" stroke-width="3" opacity=".19" stroke-linecap="round"/><path d="M -53.5 216.1 q 18 -10 35 0" fill="none" stroke="#c76caa" stroke-width="3" opacity=".19" stroke-linecap="round"/><path d="M -297.4 30.3 q 18 -10 35 0" fill="none" stroke="#c76caa" stroke-width="3" opacity=".19" stroke-linecap="round"/><path d="M -70.1 -131.0 q 18 -10 35 0" fill="none" stroke="#c76caa" stroke-width="3" opacity=".19" stroke-linecap="round"/><path d="M 93.5 -84.7 q 18 -10 35 0" fill="none" stroke="#c76caa" stroke-width="3" opacity=".19" stroke-linecap="round"/><path d="M 162.6 137.5 q 18 -10 35 0" fill="none" stroke="#c76caa" stroke-width="3" opacity=".19" stroke-linecap="round"/><path d="M -46.2 70.6 q 18 -10 35 0" fill="none" stroke="#c76caa" stroke-width="3" opacity=".19" stroke-linecap="round"/><path d="M -91.6 -8.0 q 18 -10 35 0" fill="none" stroke="#c76caa" stroke-width="3" opacity=".19" stroke-linecap="round"/><path d="M -59.8 -255.6 q 18 -10 35 0" fill="none" stroke="#c76caa" stroke-width="3" opacity=".19" stroke-linecap="round"/><path d="M 149.0 -77.2 q 18 -10 35 0" fill="none" stroke="#c76caa" stroke-width="3" opacity=".19" stroke-linecap="round"/><g transform="translate(-214.44,-53.46) rotate(-20)"><ellipse rx="37" ry="30" fill="#eee2b7" stroke="#e6d397" stroke-width="4"/><ellipse rx="32" ry="25" fill="url(#banana)"/><ellipse rx="20" ry="15" fill="none" stroke="#ead8a5" stroke-width="1.5"/><circle cx="-8" cy="-1" r="1.6" fill="#c9a669"/><circle cx="10" cy="1" r="1.6" fill="#c9a669"/></g><g transform="translate(-201.89,-89.89) rotate(-11)"><ellipse rx="37" ry="30" fill="#eee2b7" stroke="#e6d397" stroke-width="4"/><ellipse rx="32" ry="25" fill="url(#banana)"/><ellipse rx="20" ry="15" fill="none" stroke="#ead8a5" stroke-width="1.5"/><circle cx="-8" cy="-1" r="1.6" fill="#c9a669"/><circle cx="10" cy="1" r="1.6" fill="#c9a669"/></g><g transform="translate(-183.22,-123.58) rotate(-2)"><ellipse rx="37" ry="30" fill="#eee2b7" stroke="#e6d397" stroke-width="4"/><ellipse rx="32" ry="25" fill="url(#banana)"/><ellipse rx="20" ry="15" fill="none" stroke="#ead8a5" stroke-width="1.5"/><circle cx="-8" cy="-1" r="1.6" fill="#c9a669"/><circle cx="10" cy="1" r="1.6" fill="#c9a669"/></g><g transform="translate(-158.97,-153.52) rotate(7)"><ellipse rx="37" ry="30" fill="#eee2b7" stroke="#e6d397" stroke-width="4"/><ellipse rx="32" ry="25" fill="url(#banana)"/><ellipse rx="20" ry="15" fill="none" stroke="#ead8a5" stroke-width="1.5"/><circle cx="-8" cy="-1" r="1.6" fill="#c9a669"/><circle cx="10" cy="1" r="1.6" fill="#c9a669"/></g><g transform="translate(-129.90,-178.79) rotate(16)"><ellipse rx="37" ry="30" fill="#eee2b7" stroke="#e6d397" stroke-width="4"/><ellipse rx="32" ry="25" fill="url(#banana)"/><ellipse rx="20" ry="15" fill="none" stroke="#ead8a5" stroke-width="1.5"/><circle cx="-8" cy="-1" r="1.6" fill="#c9a669"/><circle cx="10" cy="1" r="1.6" fill="#c9a669"/></g><g transform="translate(-96.88,-198.63) rotate(25)"><ellipse rx="37" ry="30" fill="#eee2b7" stroke="#e6d397" stroke-width="4"/><ellipse rx="32" ry="25" fill="url(#banana)"/><ellipse rx="20" ry="15" fill="none" stroke="#ead8a5" stroke-width="1.5"/><circle cx="-8" cy="-1" r="1.6" fill="#c9a669"/><circle cx="10" cy="1" r="1.6" fill="#c9a669"/></g><g transform="translate(-60.92,-212.44) rotate(34)"><ellipse rx="37" ry="30" fill="#eee2b7" stroke="#e6d397" stroke-width="4"/><ellipse rx="32" ry="25" fill="url(#banana)"/><ellipse rx="20" ry="15" fill="none" stroke="#ead8a5" stroke-width="1.5"/><circle cx="-8" cy="-1" r="1.6" fill="#c9a669"/><circle cx="10" cy="1" r="1.6" fill="#c9a669"/></g><g transform="translate(-23.10,-219.79) rotate(43)"><ellipse rx="37" ry="30" fill="#eee2b7" stroke="#e6d397" stroke-width="4"/><ellipse rx="32" ry="25" fill="url(#banana)"/><ellipse rx="20" ry="15" fill="none" stroke="#ead8a5" stroke-width="1.5"/><circle cx="-8" cy="-1" r="1.6" fill="#c9a669"/><circle cx="10" cy="1" r="1.6" fill="#c9a669"/></g><g transform="translate(15.42,-220.46) rotate(52)"><ellipse rx="37" ry="30" fill="#eee2b7" stroke="#e6d397" stroke-width="4"/><ellipse rx="32" ry="25" fill="url(#banana)"/><ellipse rx="20" ry="15" fill="none" stroke="#ead8a5" stroke-width="1.5"/><circle cx="-8" cy="-1" r="1.6" fill="#c9a669"/><circle cx="10" cy="1" r="1.6" fill="#c9a669"/></g><g transform="translate(53.46,-214.44) rotate(61)"><ellipse rx="37" ry="30" fill="#eee2b7" stroke="#e6d397" stroke-width="4"/><ellipse rx="32" ry="25" fill="url(#banana)"/><ellipse rx="20" ry="15" fill="none" stroke="#ead8a5" stroke-width="1.5"/><circle cx="-8" cy="-1" r="1.6" fill="#c9a669"/><circle cx="10" cy="1" r="1.6" fill="#c9a669"/></g><g transform="translate(89.89,-201.89) rotate(70)"><ellipse rx="37" ry="30" fill="#eee2b7" stroke="#e6d397" stroke-width="4"/><ellipse rx="32" ry="25" fill="url(#banana)"/><ellipse rx="20" ry="15" fill="none" stroke="#ead8a5" stroke-width="1.5"/><circle cx="-8" cy="-1" r="1.6" fill="#c9a669"/><circle cx="10" cy="1" r="1.6" fill="#c9a669"/></g><g transform="translate(98.97,-194.24) rotate(45)"><path d="M 0 -37 C 52 -45 54 24 0 44 C -54 24 -52 -45 0 -37Z" fill="#f8e5d7" stroke="#f9d4c6" stroke-width="3"/><path d="M 0 -32 C 42 -36 41 17 0 37 C -41 17 -42 -36 0 -32Z" fill="url(#strawberry)"/><path d="M 0 -27 L 0 30 M -22 -17 Q 0 -5 24 -17 M -25 3 Q 0 15 25 3" fill="none" stroke="#ffaeb0" stroke-width="2" opacity=".8"/><g fill="#ffe1bf"><ellipse cx="-15" cy="-8" rx="2" ry="3"/><ellipse cx="14" cy="-8" rx="2" ry="3"/><ellipse cx="-13" cy="9" rx="2" ry="3"/><ellipse cx="13" cy="9" rx="2" ry="3"/><ellipse cy="-21" rx="2" ry="3"/></g></g><g transform="translate(140.13,-167.00) rotate(58)"><path d="M 0 -37 C 52 -45 54 24 0 44 C -54 24 -52 -45 0 -37Z" fill="#f8e5d7" stroke="#f9d4c6" stroke-width="3"/><path d="M 0 -32 C 42 -36 41 17 0 37 C -41 17 -42 -36 0 -32Z" fill="url(#strawberry)"/><path d="M 0 -27 L 0 30 M -22 -17 Q 0 -5 24 -17 M -25 3 Q 0 15 25 3" fill="none" stroke="#ffaeb0" stroke-width="2" opacity=".8"/><g fill="#ffe1bf"><ellipse cx="-15" cy="-8" rx="2" ry="3"/><ellipse cx="14" cy="-8" rx="2" ry="3"/><ellipse cx="-13" cy="9" rx="2" ry="3"/><ellipse cx="13" cy="9" rx="2" ry="3"/><ellipse cy="-21" rx="2" ry="3"/></g></g><g transform="translate(174.10,-131.20) rotate(71)"><path d="M 0 -37 C 52 -45 54 24 0 44 C -54 24 -52 -45 0 -37Z" fill="#f8e5d7" stroke="#f9d4c6" stroke-width="3"/><path d="M 0 -32 C 42 -36 41 17 0 37 C -41 17 -42 -36 0 -32Z" fill="url(#strawberry)"/><path d="M 0 -27 L 0 30 M -22 -17 Q 0 -5 24 -17 M -25 3 Q 0 15 25 3" fill="none" stroke="#ffaeb0" stroke-width="2" opacity=".8"/><g fill="#ffe1bf"><ellipse cx="-15" cy="-8" rx="2" ry="3"/><ellipse cx="14" cy="-8" rx="2" ry="3"/><ellipse cx="-13" cy="9" rx="2" ry="3"/><ellipse cx="13" cy="9" rx="2" ry="3"/><ellipse cy="-21" rx="2" ry="3"/></g></g><g transform="translate(199.15,-88.67) rotate(84)"><path d="M 0 -37 C 52 -45 54 24 0 44 C -54 24 -52 -45 0 -37Z" fill="#f8e5d7" stroke="#f9d4c6" stroke-width="3"/><path d="M 0 -32 C 42 -36 41 17 0 37 C -41 17 -42 -36 0 -32Z" fill="url(#strawberry)"/><path d="M 0 -27 L 0 30 M -22 -17 Q 0 -5 24 -17 M -25 3 Q 0 15 25 3" fill="none" stroke="#ffaeb0" stroke-width="2" opacity=".8"/><g fill="#ffe1bf"><ellipse cx="-15" cy="-8" rx="2" ry="3"/><ellipse cx="14" cy="-8" rx="2" ry="3"/><ellipse cx="-13" cy="9" rx="2" ry="3"/><ellipse cx="13" cy="9" rx="2" ry="3"/><ellipse cy="-21" rx="2" ry="3"/></g></g><g transform="translate(213.99,-41.60) rotate(97)"><path d="M 0 -37 C 52 -45 54 24 0 44 C -54 24 -52 -45 0 -37Z" fill="#f8e5d7" stroke="#f9d4c6" stroke-width="3"/><path d="M 0 -32 C 42 -36 41 17 0 37 C -41 17 -42 -36 0 -32Z" fill="url(#strawberry)"/><path d="M 0 -27 L 0 30 M -22 -17 Q 0 -5 24 -17 M -25 3 Q 0 15 25 3" fill="none" stroke="#ffaeb0" stroke-width="2" opacity=".8"/><g fill="#ffe1bf"><ellipse cx="-15" cy="-8" rx="2" ry="3"/><ellipse cx="14" cy="-8" rx="2" ry="3"/><ellipse cx="-13" cy="9" rx="2" ry="3"/><ellipse cx="13" cy="9" rx="2" ry="3"/><ellipse cy="-21" rx="2" ry="3"/></g></g><ellipse cx="-113.4" cy="225.2" rx="4.9" ry="4.9" transform="rotate(167 -113.4 225.2)" fill="#f2d8a1" opacity=".95"/><ellipse cx="-223.0" cy="71.1" rx="3.9" ry="2.5" transform="rotate(171 -223.0 71.1)" fill="#b77e42" opacity=".95"/><ellipse cx="-117.3" cy="245.3" rx="7.5" ry="4.3" transform="rotate(133 -117.3 245.3)" fill="#debc7d" opacity=".95"/><ellipse cx="-109.2" cy="22.7" rx="5.1" ry="3.6" transform="rotate(17 -109.2 22.7)" fill="#b77e42" opacity=".95"/><ellipse cx="-181.3" cy="34.6" rx="6.6" ry="2.8" transform="rotate(90 -181.3 34.6)" fill="#af773f" opacity=".95"/><ellipse cx="-193.8" cy="98.4" rx="7.3" ry="3.3" transform="rotate(87 -193.8 98.4)" fill="#e9cb8a" opacity=".95"/><ellipse cx="-113.6" cy="176.4" rx="6.3" ry="3.3" transform="rotate(90 -113.6 176.4)" fill="#debc7d" opacity=".95"/><ellipse cx="13.1" cy="179.9" rx="6.6" ry="4.1" transform="rotate(78 13.1 179.9)" fill="#af773f" opacity=".95"/><ellipse cx="-40.1" cy="208.9" rx="3.7" ry="2.3" transform="rotate(11 -40.1 208.9)" fill="#e9cb8a" opacity=".95"/><ellipse cx="43.4" cy="276.4" rx="3.8" ry="4.7" transform="rotate(152 43.4 276.4)" fill="#e9cb8a" opacity=".95"/><ellipse cx="-136.1" cy="239.5" rx="4.5" ry="3.1" transform="rotate(27 -136.1 239.5)" fill="#e9cb8a" opacity=".95"/><ellipse cx="-108.9" cy="199.3" rx="4.2" ry="3.5" transform="rotate(148 -108.9 199.3)" fill="#debc7d" opacity=".95"/><ellipse cx="-139.6" cy="16.7" rx="4.4" ry="3.6" transform="rotate(78 -139.6 16.7)" fill="#af773f" opacity=".95"/><ellipse cx="-71.8" cy="258.3" rx="3.3" ry="2.4" transform="rotate(153 -71.8 258.3)" fill="#debc7d" opacity=".95"/><ellipse cx="-174.2" cy="45.3" rx="7.1" ry="3.4" transform="rotate(80 -174.2 45.3)" fill="#debc7d" opacity=".95"/><ellipse cx="-211.6" cy="67.3" rx="7.9" ry="3.3" transform="rotate(59 -211.6 67.3)" fill="#b77e42" opacity=".95"/><ellipse cx="-165.6" cy="139.4" rx="6.3" ry="2.2" transform="rotate(144 -165.6 139.4)" fill="#debc7d" opacity=".95"/><ellipse cx="-140.2" cy="107.2" rx="3.8" ry="4.9" transform="rotate(133 -140.2 107.2)" fill="#af773f" opacity=".95"/><ellipse cx="-83.7" cy="145.1" rx="5.3" ry="5.0" transform="rotate(66 -83.7 145.1)" fill="#f2d8a1" opacity=".95"/><ellipse cx="-34.0" cy="110.8" rx="3.5" ry="3.3" transform="rotate(39 -34.0 110.8)" fill="#cf9e60" opacity=".95"/><ellipse cx="-136.4" cy="85.5" rx="6.9" ry="3.5" transform="rotate(163 -136.4 85.5)" fill="#debc7d" opacity=".95"/><ellipse cx="-278.7" cy="81.6" rx="4.7" ry="2.8" transform="rotate(128 -278.7 81.6)" fill="#e9cb8a" opacity=".95"/><ellipse cx="-57.5" cy="150.7" rx="5.3" ry="4.9" transform="rotate(66 -57.5 150.7)" fill="#af773f" opacity=".95"/><ellipse cx="-65.5" cy="149.2" rx="4.0" ry="4.1" transform="rotate(141 -65.5 149.2)" fill="#af773f" opacity=".95"/><ellipse cx="-129.2" cy="50.3" rx="3.5" ry="2.5" transform="rotate(108 -129.2 50.3)" fill="#af773f" opacity=".95"/><ellipse cx="-230.7" cy="70.3" rx="7.6" ry="2.6" transform="rotate(94 -230.7 70.3)" fill="#b77e42" opacity=".95"/><ellipse cx="6.2" cy="186.3" rx="7.2" ry="4.0" transform="rotate(84 6.2 186.3)" fill="#f2d8a1" opacity=".95"/><ellipse cx="-60.0" cy="103.2" rx="8.0" ry="4.9" transform="rotate(146 -60.0 103.2)" fill="#e9cb8a" opacity=".95"/><ellipse cx="-43.4" cy="280.5" rx="7.8" ry="2.6" transform="rotate(172 -43.4 280.5)" fill="#f2d8a1" opacity=".95"/><ellipse cx="-183.1" cy="86.6" rx="3.4" ry="4.5" transform="rotate(155 -183.1 86.6)" fill="#debc7d" opacity=".95"/><ellipse cx="-168.6" cy="83.4" rx="4.6" ry="3.5" transform="rotate(5 -168.6 83.4)" fill="#b77e42" opacity=".95"/><ellipse cx="-106.0" cy="33.7" rx="4.8" ry="2.6" transform="rotate(20 -106.0 33.7)" fill="#e9cb8a" opacity=".95"/><ellipse cx="-15.5" cy="215.4" rx="7.2" ry="2.4" transform="rotate(26 -15.5 215.4)" fill="#debc7d" opacity=".95"/><ellipse cx="-106.4" cy="160.3" rx="3.3" ry="4.3" transform="rotate(63 -106.4 160.3)" fill="#b77e42" opacity=".95"/><ellipse cx="-254.0" cy="76.7" rx="5.4" ry="3.4" transform="rotate(31 -254.0 76.7)" fill="#f2d8a1" opacity=".95"/><ellipse cx="-0.9" cy="112.4" rx="7.5" ry="2.2" transform="rotate(149 -0.9 112.4)" fill="#af773f" opacity=".95"/><ellipse cx="12.3" cy="217.7" rx="5.9" ry="3.8" transform="rotate(134 12.3 217.7)" fill="#f2d8a1" opacity=".95"/><ellipse cx="-197.1" cy="35.9" rx="4.5" ry="2.2" transform="rotate(21 -197.1 35.9)" fill="#af773f" opacity=".95"/><ellipse cx="-100.3" cy="209.3" rx="6.1" ry="2.6" transform="rotate(87 -100.3 209.3)" fill="#debc7d" opacity=".95"/><ellipse cx="-109.3" cy="110.9" rx="6.2" ry="3.4" transform="rotate(118 -109.3 110.9)" fill="#cf9e60" opacity=".95"/><ellipse cx="-69.2" cy="271.0" rx="5.0" ry="2.4" transform="rotate(168 -69.2 271.0)" fill="#debc7d" opacity=".95"/><ellipse cx="-232.1" cy="140.6" rx="6.6" ry="4.9" transform="rotate(28 -232.1 140.6)" fill="#b77e42" opacity=".95"/><ellipse cx="-143.2" cy="176.5" rx="3.2" ry="3.6" transform="rotate(66 -143.2 176.5)" fill="#af773f" opacity=".95"/><ellipse cx="-49.8" cy="202.2" rx="6.6" ry="2.1" transform="rotate(11 -49.8 202.2)" fill="#e9cb8a" opacity=".95"/><ellipse cx="-50.5" cy="258.9" rx="4.8" ry="4.7" transform="rotate(75 -50.5 258.9)" fill="#b77e42" opacity=".95"/><ellipse cx="-142.3" cy="149.3" rx="6.1" ry="4.4" transform="rotate(85 -142.3 149.3)" fill="#b77e42" opacity=".95"/><ellipse cx="-227.6" cy="118.9" rx="6.8" ry="2.8" transform="rotate(75 -227.6 118.9)" fill="#f2d8a1" opacity=".95"/><ellipse cx="-100.1" cy="110.3" rx="4.9" ry="4.6" transform="rotate(134 -100.1 110.3)" fill="#cf9e60" opacity=".95"/><ellipse cx="-21.9" cy="270.1" rx="7.2" ry="3.4" transform="rotate(171 -21.9 270.1)" fill="#cf9e60" opacity=".95"/><ellipse cx="9.0" cy="212.8" rx="5.2" ry="3.9" transform="rotate(26 9.0 212.8)" fill="#af773f" opacity=".95"/><ellipse cx="-255.3" cy="49.4" rx="6.4" ry="3.7" transform="rotate(55 -255.3 49.4)" fill="#b77e42" opacity=".95"/><ellipse cx="1.3" cy="190.8" rx="6.7" ry="4.0" transform="rotate(38 1.3 190.8)" fill="#debc7d" opacity=".95"/><ellipse cx="-107.1" cy="78.9" rx="7.7" ry="3.4" transform="rotate(52 -107.1 78.9)" fill="#b77e42" opacity=".95"/><ellipse cx="-212.9" cy="63.4" rx="6.2" ry="3.6" transform="rotate(85 -212.9 63.4)" fill="#af773f" opacity=".95"/><ellipse cx="-90.8" cy="43.3" rx="7.2" ry="4.2" transform="rotate(28 -90.8 43.3)" fill="#e9cb8a" opacity=".95"/><ellipse cx="-185.7" cy="222.5" rx="4.2" ry="2.6" transform="rotate(113 -185.7 222.5)" fill="#b77e42" opacity=".95"/><ellipse cx="-131.2" cy="251.5" rx="7.5" ry="4.1" transform="rotate(17 -131.2 251.5)" fill="#debc7d" opacity=".95"/><ellipse cx="-161.7" cy="184.1" rx="6.7" ry="3.3" transform="rotate(16 -161.7 184.1)" fill="#b77e42" opacity=".95"/><ellipse cx="-68.1" cy="232.3" rx="5.2" ry="3.4" transform="rotate(138 -68.1 232.3)" fill="#b77e42" opacity=".95"/><ellipse cx="-0.0" cy="241.4" rx="6.6" ry="2.9" transform="rotate(8 -0.0 241.4)" fill="#b77e42" opacity=".95"/><ellipse cx="12.2" cy="201.6" rx="7.7" ry="4.9" transform="rotate(30 12.2 201.6)" fill="#b77e42" opacity=".95"/><ellipse cx="-99.7" cy="121.7" rx="4.4" ry="3.9" transform="rotate(163 -99.7 121.7)" fill="#af773f" opacity=".95"/><ellipse cx="-153.2" cy="160.3" rx="3.1" ry="4.9" transform="rotate(100 -153.2 160.3)" fill="#cf9e60" opacity=".95"/><ellipse cx="-78.6" cy="156.2" rx="4.4" ry="2.4" transform="rotate(149 -78.6 156.2)" fill="#af773f" opacity=".95"/><ellipse cx="-92.3" cy="268.2" rx="3.6" ry="2.1" transform="rotate(114 -92.3 268.2)" fill="#cf9e60" opacity=".95"/><ellipse cx="26.0" cy="173.6" rx="3.7" ry="4.2" transform="rotate(99 26.0 173.6)" fill="#f2d8a1" opacity=".95"/><ellipse cx="-59.9" cy="195.7" rx="7.8" ry="2.7" transform="rotate(13 -59.9 195.7)" fill="#af773f" opacity=".95"/><ellipse cx="-154.0" cy="23.6" rx="4.3" ry="2.3" transform="rotate(37 -154.0 23.6)" fill="#f2d8a1" opacity=".95"/><ellipse cx="-145.7" cy="206.3" rx="6.1" ry="3.1" transform="rotate(89 -145.7 206.3)" fill="#e9cb8a" opacity=".95"/><ellipse cx="-128.0" cy="242.8" rx="7.4" ry="4.7" transform="rotate(139 -128.0 242.8)" fill="#b77e42" opacity=".95"/><ellipse cx="-144.1" cy="248.2" rx="8.0" ry="4.7" transform="rotate(77 -144.1 248.2)" fill="#b77e42" opacity=".95"/><ellipse cx="-147.8" cy="111.1" rx="4.7" ry="2.2" transform="rotate(120 -147.8 111.1)" fill="#cf9e60" opacity=".95"/><ellipse cx="-148.7" cy="21.5" rx="6.2" ry="4.5" transform="rotate(129 -148.7 21.5)" fill="#e9cb8a" opacity=".95"/><ellipse cx="-87.4" cy="147.6" rx="7.7" ry="4.7" transform="rotate(93 -87.4 147.6)" fill="#af773f" opacity=".95"/><ellipse cx="-154.9" cy="44.3" rx="4.3" ry="4.8" transform="rotate(85 -154.9 44.3)" fill="#f2d8a1" opacity=".95"/><ellipse cx="8.7" cy="105.3" rx="7.6" ry="4.2" transform="rotate(61 8.7 105.3)" fill="#e9cb8a" opacity=".95"/><ellipse cx="-214.4" cy="146.1" rx="5.5" ry="3.3" transform="rotate(167 -214.4 146.1)" fill="#af773f" opacity=".95"/><ellipse cx="-196.3" cy="125.6" rx="6.0" ry="2.6" transform="rotate(119 -196.3 125.6)" fill="#af773f" opacity=".95"/><ellipse cx="-132.4" cy="61.3" rx="3.9" ry="3.2" transform="rotate(85 -132.4 61.3)" fill="#b77e42" opacity=".95"/><ellipse cx="-134.6" cy="146.8" rx="4.4" ry="2.4" transform="rotate(126 -134.6 146.8)" fill="#b77e42" opacity=".95"/><ellipse cx="-142.5" cy="51.0" rx="4.5" ry="2.8" transform="rotate(166 -142.5 51.0)" fill="#debc7d" opacity=".95"/><ellipse cx="-120.9" cy="15.7" rx="7.0" ry="2.6" transform="rotate(10 -120.9 15.7)" fill="#af773f" opacity=".95"/><ellipse cx="-180.2" cy="66.2" rx="3.1" ry="4.5" transform="rotate(162 -180.2 66.2)" fill="#debc7d" opacity=".95"/><ellipse cx="-103.3" cy="177.9" rx="4.1" ry="2.5" transform="rotate(175 -103.3 177.9)" fill="#e9cb8a" opacity=".95"/><ellipse cx="-23.7" cy="184.6" rx="6.7" ry="4.6" transform="rotate(113 -23.7 184.6)" fill="#f2d8a1" opacity=".95"/><ellipse cx="-13.9" cy="237.5" rx="5.2" ry="4.2" transform="rotate(79 -13.9 237.5)" fill="#af773f" opacity=".95"/><ellipse cx="-196.1" cy="128.7" rx="5.8" ry="2.6" transform="rotate(94 -196.1 128.7)" fill="#b77e42" opacity=".95"/><ellipse cx="-142.1" cy="137.6" rx="3.8" ry="3.3" transform="rotate(96 -142.1 137.6)" fill="#f2d8a1" opacity=".95"/><ellipse cx="-230.0" cy="100.0" rx="7.2" ry="2.4" transform="rotate(26 -230.0 100.0)" fill="#cf9e60" opacity=".95"/><ellipse cx="-186.0" cy="187.5" rx="3.9" ry="3.9" transform="rotate(104 -186.0 187.5)" fill="#b77e42" opacity=".95"/><ellipse cx="-222.5" cy="157.3" rx="3.3" ry="2.0" transform="rotate(149 -222.5 157.3)" fill="#f2d8a1" opacity=".95"/><ellipse cx="9.5" cy="240.4" rx="6.3" ry="2.1" transform="rotate(157 9.5 240.4)" fill="#debc7d" opacity=".95"/><ellipse cx="29.9" cy="183.1" rx="6.4" ry="3.4" transform="rotate(142 29.9 183.1)" fill="#af773f" opacity=".95"/><ellipse cx="-119.3" cy="44.9" rx="6.6" ry="3.8" transform="rotate(173 -119.3 44.9)" fill="#b77e42" opacity=".95"/><ellipse cx="-274.0" cy="91.1" rx="7.9" ry="4.5" transform="rotate(56 -274.0 91.1)" fill="#cf9e60" opacity=".95"/><ellipse cx="-146.0" cy="54.9" rx="5.1" ry="4.6" transform="rotate(85 -146.0 54.9)" fill="#e9cb8a" opacity=".95"/><ellipse cx="-209.3" cy="53.2" rx="4.7" ry="4.9" transform="rotate(77 -209.3 53.2)" fill="#f2d8a1" opacity=".95"/><ellipse cx="-27.3" cy="210.9" rx="4.0" ry="4.3" transform="rotate(120 -27.3 210.9)" fill="#debc7d" opacity=".95"/><ellipse cx="4.2" cy="205.2" rx="5.1" ry="2.5" transform="rotate(56 4.2 205.2)" fill="#cf9e60" opacity=".95"/><ellipse cx="-130.0" cy="34.3" rx="4.9" ry="3.0" transform="rotate(94 -130.0 34.3)" fill="#b77e42" opacity=".95"/><ellipse cx="-122.0" cy="15.1" rx="5.6" ry="2.3" transform="rotate(139 -122.0 15.1)" fill="#debc7d" opacity=".95"/><ellipse cx="-144.1" cy="125.1" rx="7.2" ry="4.4" transform="rotate(79 -144.1 125.1)" fill="#cf9e60" opacity=".95"/><ellipse cx="-104.0" cy="127.3" rx="7.9" ry="4.3" transform="rotate(9 -104.0 127.3)" fill="#af773f" opacity=".95"/><ellipse cx="-144.4" cy="124.5" rx="7.5" ry="3.9" transform="rotate(22 -144.4 124.5)" fill="#f2d8a1" opacity=".95"/><ellipse cx="22.9" cy="143.4" rx="3.3" ry="3.6" transform="rotate(160 22.9 143.4)" fill="#e9cb8a" opacity=".95"/><ellipse cx="-81.3" cy="132.3" rx="7.2" ry="2.0" transform="rotate(14 -81.3 132.3)" fill="#b77e42" opacity=".95"/><ellipse cx="-92.3" cy="181.8" rx="5.6" ry="3.0" transform="rotate(155 -92.3 181.8)" fill="#debc7d" opacity=".95"/><ellipse cx="-206.0" cy="100.3" rx="4.8" ry="4.9" transform="rotate(18 -206.0 100.3)" fill="#cf9e60" opacity=".95"/><ellipse cx="-168.7" cy="155.8" rx="5.1" ry="2.5" transform="rotate(173 -168.7 155.8)" fill="#af773f" opacity=".95"/><ellipse cx="16.9" cy="163.5" rx="4.6" ry="2.6" transform="rotate(38 16.9 163.5)" fill="#b77e42" opacity=".95"/><ellipse cx="-188.8" cy="82.2" rx="7.3" ry="2.0" transform="rotate(93 -188.8 82.2)" fill="#f2d8a1" opacity=".95"/><ellipse cx="7.1" cy="212.2" rx="3.8" ry="3.0" transform="rotate(132 7.1 212.2)" fill="#b77e42" opacity=".95"/><ellipse cx="-41.6" cy="161.5" rx="4.0" ry="4.7" transform="rotate(101 -41.6 161.5)" fill="#af773f" opacity=".95"/><ellipse cx="-31.2" cy="260.3" rx="3.7" ry="3.3" transform="rotate(17 -31.2 260.3)" fill="#cf9e60" opacity=".95"/><ellipse cx="-72.9" cy="184.3" rx="3.6" ry="2.6" transform="rotate(82 -72.9 184.3)" fill="#b77e42" opacity=".95"/><ellipse cx="-85.1" cy="110.9" rx="5.7" ry="5.0" transform="rotate(136 -85.1 110.9)" fill="#b77e42" opacity=".95"/><ellipse cx="-123.9" cy="222.7" rx="4.4" ry="2.2" transform="rotate(26 -123.9 222.7)" fill="#f2d8a1" opacity=".95"/><ellipse cx="-257.7" cy="139.2" rx="4.0" ry="3.8" transform="rotate(83 -257.7 139.2)" fill="#cf9e60" opacity=".95"/><ellipse cx="-106.7" cy="40.4" rx="7.2" ry="2.1" transform="rotate(40 -106.7 40.4)" fill="#e9cb8a" opacity=".95"/><ellipse cx="-85.0" cy="259.3" rx="5.7" ry="2.4" transform="rotate(11 -85.0 259.3)" fill="#cf9e60" opacity=".95"/><ellipse cx="-82.5" cy="102.2" rx="7.3" ry="3.6" transform="rotate(140 -82.5 102.2)" fill="#af773f" opacity=".95"/><ellipse cx="16.2" cy="102.0" rx="6.6" ry="3.6" transform="rotate(7 16.2 102.0)" fill="#af773f" opacity=".95"/><ellipse cx="-141.3" cy="47.3" rx="4.2" ry="2.8" transform="rotate(67 -141.3 47.3)" fill="#b77e42" opacity=".95"/><ellipse cx="-181.8" cy="121.8" rx="5.0" ry="3.2" transform="rotate(119 -181.8 121.8)" fill="#b77e42" opacity=".95"/><ellipse cx="-192.8" cy="221.9" rx="7.0" ry="3.2" transform="rotate(9 -192.8 221.9)" fill="#f2d8a1" opacity=".95"/><ellipse cx="-113.4" cy="199.8" rx="5.2" ry="3.9" transform="rotate(1 -113.4 199.8)" fill="#af773f" opacity=".95"/><ellipse cx="-140.0" cy="43.2" rx="5.9" ry="4.8" transform="rotate(150 -140.0 43.2)" fill="#af773f" opacity=".95"/><ellipse cx="-264.6" cy="95.8" rx="5.1" ry="4.5" transform="rotate(166 -264.6 95.8)" fill="#f2d8a1" opacity=".95"/><ellipse cx="-194.7" cy="169.9" rx="7.0" ry="4.2" transform="rotate(140 -194.7 169.9)" fill="#f2d8a1" opacity=".95"/><ellipse cx="14.2" cy="230.8" rx="3.7" ry="2.7" transform="rotate(62 14.2 230.8)" fill="#debc7d" opacity=".95"/><ellipse cx="-29.0" cy="123.0" rx="3.8" ry="4.1" transform="rotate(110 -29.0 123.0)" fill="#f2d8a1" opacity=".95"/><ellipse cx="-171.9" cy="117.4" rx="4.6" ry="5.0" transform="rotate(27 -171.9 117.4)" fill="#debc7d" opacity=".95"/><ellipse cx="-200.8" cy="209.0" rx="6.5" ry="2.2" transform="rotate(132 -200.8 209.0)" fill="#debc7d" opacity=".95"/><ellipse cx="-113.6" cy="168.2" rx="3.5" ry="4.0" transform="rotate(85 -113.6 168.2)" fill="#af773f" opacity=".95"/><ellipse cx="-91.3" cy="136.5" rx="5.2" ry="2.3" transform="rotate(167 -91.3 136.5)" fill="#f2d8a1" opacity=".95"/><ellipse cx="-83.6" cy="171.8" rx="4.6" ry="4.7" transform="rotate(127 -83.6 171.8)" fill="#debc7d" opacity=".95"/><ellipse cx="-100.5" cy="76.6" rx="5.7" ry="3.6" transform="rotate(176 -100.5 76.6)" fill="#cf9e60" opacity=".95"/><ellipse cx="-143.3" cy="58.6" rx="7.8" ry="3.3" transform="rotate(132 -143.3 58.6)" fill="#cf9e60" opacity=".95"/><ellipse cx="-191.6" cy="31.2" rx="7.6" ry="2.4" transform="rotate(105 -191.6 31.2)" fill="#debc7d" opacity=".95"/><ellipse cx="-126.3" cy="171.6" rx="4.0" ry="3.1" transform="rotate(63 -126.3 171.6)" fill="#debc7d" opacity=".95"/><ellipse cx="8.5" cy="140.8" rx="6.0" ry="3.9" transform="rotate(66 8.5 140.8)" fill="#debc7d" opacity=".95"/><ellipse cx="-126.5" cy="218.1" rx="3.6" ry="4.8" transform="rotate(59 -126.5 218.1)" fill="#f2d8a1" opacity=".95"/><ellipse cx="-105.0" cy="269.3" rx="3.7" ry="2.8" transform="rotate(93 -105.0 269.3)" fill="#cf9e60" opacity=".95"/><ellipse cx="-108.1" cy="219.4" rx="4.1" ry="3.3" transform="rotate(114 -108.1 219.4)" fill="#af773f" opacity=".95"/><ellipse cx="-176.3" cy="111.7" rx="6.5" ry="3.8" transform="rotate(146 -176.3 111.7)" fill="#f2d8a1" opacity=".95"/><ellipse cx="-155.5" cy="99.6" rx="5.1" ry="3.8" transform="rotate(110 -155.5 99.6)" fill="#af773f" opacity=".95"/><ellipse cx="-209.8" cy="89.7" rx="3.5" ry="3.4" transform="rotate(143 -209.8 89.7)" fill="#af773f" opacity=".95"/><ellipse cx="38.9" cy="244.4" rx="5.4" ry="2.6" transform="rotate(165 38.9 244.4)" fill="#af773f" opacity=".95"/><ellipse cx="-72.0" cy="163.5" rx="5.1" ry="4.0" transform="rotate(171 -72.0 163.5)" fill="#f2d8a1" opacity=".95"/><ellipse cx="-156.7" cy="90.4" rx="5.5" ry="4.7" transform="rotate(152 -156.7 90.4)" fill="#af773f" opacity=".95"/><ellipse cx="-144.1" cy="226.2" rx="3.3" ry="3.3" transform="rotate(128 -144.1 226.2)" fill="#af773f" opacity=".95"/><ellipse cx="-79.5" cy="239.5" rx="7.8" ry="2.3" transform="rotate(68 -79.5 239.5)" fill="#cf9e60" opacity=".95"/><ellipse cx="-196.1" cy="69.3" rx="5.3" ry="3.5" transform="rotate(24 -196.1 69.3)" fill="#f2d8a1" opacity=".95"/><ellipse cx="-38.0" cy="108.7" rx="7.3" ry="4.4" transform="rotate(167 -38.0 108.7)" fill="#b77e42" opacity=".95"/><ellipse cx="-37.3" cy="175.0" rx="7.6" ry="2.9" transform="rotate(166 -37.3 175.0)" fill="#f2d8a1" opacity=".95"/><ellipse cx="-95.5" cy="155.7" rx="4.0" ry="2.6" transform="rotate(172 -95.5 155.7)" fill="#f2d8a1" opacity=".95"/><ellipse cx="-275.4" cy="92.5" rx="4.6" ry="2.9" transform="rotate(77 -275.4 92.5)" fill="#b77e42" opacity=".95"/><ellipse cx="-121.4" cy="38.8" rx="5.8" ry="4.5" transform="rotate(41 -121.4 38.8)" fill="#af773f" opacity=".95"/><ellipse cx="-126.6" cy="130.3" rx="4.2" ry="3.7" transform="rotate(29 -126.6 130.3)" fill="#e9cb8a" opacity=".95"/><ellipse cx="-205.1" cy="125.1" rx="6.6" ry="2.7" transform="rotate(162 -205.1 125.1)" fill="#e9cb8a" opacity=".95"/><ellipse cx="-88.0" cy="60.7" rx="3.4" ry="4.4" transform="rotate(94 -88.0 60.7)" fill="#f2d8a1" opacity=".95"/><ellipse cx="-90.2" cy="244.3" rx="4.6" ry="2.2" transform="rotate(45 -90.2 244.3)" fill="#b77e42" opacity=".95"/><ellipse cx="-280.3" cy="72.5" rx="3.8" ry="4.8" transform="rotate(158 -280.3 72.5)" fill="#b77e42" opacity=".95"/><ellipse cx="-65.4" cy="165.9" rx="7.6" ry="3.3" transform="rotate(32 -65.4 165.9)" fill="#b77e42" opacity=".95"/><ellipse cx="-67.4" cy="86.7" rx="6.8" ry="3.8" transform="rotate(15 -67.4 86.7)" fill="#f2d8a1" opacity=".95"/><ellipse cx="-19.5" cy="231.6" rx="8.0" ry="3.0" transform="rotate(166 -19.5 231.6)" fill="#e9cb8a" opacity=".95"/><ellipse cx="-72.6" cy="117.9" rx="4.6" ry="2.3" transform="rotate(129 -72.6 117.9)" fill="#f2d8a1" opacity=".95"/><ellipse cx="-99.4" cy="13.0" rx="7.6" ry="5.0" transform="rotate(105 -99.4 13.0)" fill="#cf9e60" opacity=".95"/><ellipse cx="-282.4" cy="51.2" rx="3.3" ry="4.5" transform="rotate(166 -282.4 51.2)" fill="#f2d8a1" opacity=".95"/><ellipse cx="-39.6" cy="116.5" rx="7.0" ry="3.7" transform="rotate(84 -39.6 116.5)" fill="#e9cb8a" opacity=".95"/><ellipse cx="-147.2" cy="80.3" rx="3.5" ry="2.1" transform="rotate(6 -147.2 80.3)" fill="#e9cb8a" opacity=".95"/><ellipse cx="-70.5" cy="84.5" rx="6.9" ry="3.1" transform="rotate(21 -70.5 84.5)" fill="#cf9e60" opacity=".95"/><ellipse cx="-26.7" cy="176.5" rx="7.5" ry="2.1" transform="rotate(156 -26.7 176.5)" fill="#debc7d" opacity=".95"/><ellipse cx="-118.7" cy="255.9" rx="3.7" ry="2.6" transform="rotate(151 -118.7 255.9)" fill="#b77e42" opacity=".95"/><ellipse cx="-174.3" cy="193.5" rx="4.7" ry="3.7" transform="rotate(176 -174.3 193.5)" fill="#e9cb8a" opacity=".95"/><ellipse cx="-178.0" cy="227.4" rx="6.0" ry="2.5" transform="rotate(138 -178.0 227.4)" fill="#e9cb8a" opacity=".95"/><ellipse cx="-78.6" cy="95.0" rx="6.4" ry="4.5" transform="rotate(63 -78.6 95.0)" fill="#b77e42" opacity=".95"/><ellipse cx="-224.4" cy="28.5" rx="3.2" ry="3.2" transform="rotate(125 -224.4 28.5)" fill="#cf9e60" opacity=".95"/><ellipse cx="-185.4" cy="168.7" rx="5.2" ry="4.3" transform="rotate(36 -185.4 168.7)" fill="#f2d8a1" opacity=".95"/><ellipse cx="14.9" cy="269.7" rx="3.3" ry="3.1" transform="rotate(33 14.9 269.7)" fill="#e9cb8a" opacity=".95"/><g transform="translate(121.1,69.3)"><circle r="23.5" fill="url(#blueberry)" stroke="#323253" stroke-width="2"/><circle cx="-5.6" cy="-6.8" r="4.5" fill="#b9bad8" opacity=".5"/><path d="M-5 3 0 -3 5 3 3 8 -3 8Z" fill="#333451" opacity=".75"/></g><g transform="translate(226.0,81.1)"><circle r="24.1" fill="url(#blueberry)" stroke="#323253" stroke-width="2"/><circle cx="-5.8" cy="-7.0" r="4.6" fill="#b9bad8" opacity=".5"/><path d="M-5 3 0 -3 5 3 3 8 -3 8Z" fill="#333451" opacity=".75"/></g><g transform="translate(59.6,118.0)"><circle r="24.1" fill="url(#blueberry)" stroke="#323253" stroke-width="2"/><circle cx="-5.8" cy="-7.0" r="4.6" fill="#b9bad8" opacity=".5"/><path d="M-5 3 0 -3 5 3 3 8 -3 8Z" fill="#333451" opacity=".75"/></g><g transform="translate(134.6,218.7)"><circle r="23.2" fill="url(#blueberry)" stroke="#323253" stroke-width="2"/><circle cx="-5.6" cy="-6.7" r="4.4" fill="#b9bad8" opacity=".5"/><path d="M-5 3 0 -3 5 3 3 8 -3 8Z" fill="#333451" opacity=".75"/></g><g transform="translate(138.2,141.9)"><circle r="18.4" fill="url(#blueberry)" stroke="#323253" stroke-width="2"/><circle cx="-4.4" cy="-5.3" r="3.5" fill="#b9bad8" opacity=".5"/><path d="M-5 3 0 -3 5 3 3 8 -3 8Z" fill="#333451" opacity=".75"/></g><g transform="translate(209.7,108.3)"><circle r="23.4" fill="url(#blueberry)" stroke="#323253" stroke-width="2"/><circle cx="-5.6" cy="-6.8" r="4.4" fill="#b9bad8" opacity=".5"/><path d="M-5 3 0 -3 5 3 3 8 -3 8Z" fill="#333451" opacity=".75"/></g><g transform="translate(80.1,128.8)"><circle r="23.2" fill="url(#blueberry)" stroke="#323253" stroke-width="2"/><circle cx="-5.6" cy="-6.7" r="4.4" fill="#b9bad8" opacity=".5"/><path d="M-5 3 0 -3 5 3 3 8 -3 8Z" fill="#333451" opacity=".75"/></g><g transform="translate(124.0,32.0)"><circle r="22.7" fill="url(#blueberry)" stroke="#323253" stroke-width="2"/><circle cx="-5.5" cy="-6.6" r="4.3" fill="#b9bad8" opacity=".5"/><path d="M-5 3 0 -3 5 3 3 8 -3 8Z" fill="#333451" opacity=".75"/></g><g transform="translate(184.7,64.1)"><circle r="23.1" fill="url(#blueberry)" stroke="#323253" stroke-width="2"/><circle cx="-5.5" cy="-6.7" r="4.4" fill="#b9bad8" opacity=".5"/><path d="M-5 3 0 -3 5 3 3 8 -3 8Z" fill="#333451" opacity=".75"/></g><g transform="translate(85.7,120.5)"><circle r="22.6" fill="url(#blueberry)" stroke="#323253" stroke-width="2"/><circle cx="-5.4" cy="-6.6" r="4.3" fill="#b9bad8" opacity=".5"/><path d="M-5 3 0 -3 5 3 3 8 -3 8Z" fill="#333451" opacity=".75"/></g><g transform="translate(189.3,221.8)"><circle r="19.1" fill="url(#blueberry)" stroke="#323253" stroke-width="2"/><circle cx="-4.6" cy="-5.5" r="3.6" fill="#b9bad8" opacity=".5"/><path d="M-5 3 0 -3 5 3 3 8 -3 8Z" fill="#333451" opacity=".75"/></g><g transform="translate(100.7,150.6)"><circle r="18.8" fill="url(#blueberry)" stroke="#323253" stroke-width="2"/><circle cx="-4.5" cy="-5.5" r="3.6" fill="#b9bad8" opacity=".5"/><path d="M-5 3 0 -3 5 3 3 8 -3 8Z" fill="#333451" opacity=".75"/></g><g transform="translate(91.0,164.9)"><circle r="22.4" fill="url(#blueberry)" stroke="#323253" stroke-width="2"/><circle cx="-5.4" cy="-6.5" r="4.3" fill="#b9bad8" opacity=".5"/><path d="M-5 3 0 -3 5 3 3 8 -3 8Z" fill="#333451" opacity=".75"/></g><g transform="translate(47.1,169.5)"><circle r="21.0" fill="url(#blueberry)" stroke="#323253" stroke-width="2"/><circle cx="-5.0" cy="-6.1" r="4.0" fill="#b9bad8" opacity=".5"/><path d="M-5 3 0 -3 5 3 3 8 -3 8Z" fill="#333451" opacity=".75"/></g><g transform="translate(114.1,98.1)"><circle r="17.3" fill="url(#blueberry)" stroke="#323253" stroke-width="2"/><circle cx="-4.1" cy="-5.0" r="3.3" fill="#b9bad8" opacity=".5"/><path d="M-5 3 0 -3 5 3 3 8 -3 8Z" fill="#333451" opacity=".75"/></g><g transform="translate(68.2,198.0)"><circle r="18.5" fill="url(#blueberry)" stroke="#323253" stroke-width="2"/><circle cx="-4.4" cy="-5.4" r="3.5" fill="#b9bad8" opacity=".5"/><path d="M-5 3 0 -3 5 3 3 8 -3 8Z" fill="#333451" opacity=".75"/></g><g transform="translate(231.0,135.0)"><circle r="17.3" fill="url(#blueberry)" stroke="#323253" stroke-width="2"/><circle cx="-4.1" cy="-5.0" r="3.3" fill="#b9bad8" opacity=".5"/><path d="M-5 3 0 -3 5 3 3 8 -3 8Z" fill="#333451" opacity=".75"/></g><g transform="translate(43.8,108.0)"><circle r="21.7" fill="url(#blueberry)" stroke="#323253" stroke-width="2"/><circle cx="-5.2" cy="-6.3" r="4.1" fill="#b9bad8" opacity=".5"/><path d="M-5 3 0 -3 5 3 3 8 -3 8Z" fill="#333451" opacity=".75"/></g><g transform="translate(194.7,-5.4)"><circle r="20.5" fill="url(#blueberry)" stroke="#323253" stroke-width="2"/><circle cx="-4.9" cy="-6.0" r="3.9" fill="#b9bad8" opacity=".5"/><path d="M-5 3 0 -3 5 3 3 8 -3 8Z" fill="#333451" opacity=".75"/></g><g transform="translate(158.2,79.7)"><circle r="19.7" fill="url(#blueberry)" stroke="#323253" stroke-width="2"/><circle cx="-4.7" cy="-5.7" r="3.7" fill="#b9bad8" opacity=".5"/><path d="M-5 3 0 -3 5 3 3 8 -3 8Z" fill="#333451" opacity=".75"/></g><g transform="translate(257.4,-23.5)"><circle r="22.9" fill="url(#blueberry)" stroke="#323253" stroke-width="2"/><circle cx="-5.5" cy="-6.6" r="4.3" fill="#b9bad8" opacity=".5"/><path d="M-5 3 0 -3 5 3 3 8 -3 8Z" fill="#333451" opacity=".75"/></g><g transform="translate(184.5,19.3)"><circle r="24.4" fill="url(#blueberry)" stroke="#323253" stroke-width="2"/><circle cx="-5.9" cy="-7.1" r="4.6" fill="#b9bad8" opacity=".5"/><path d="M-5 3 0 -3 5 3 3 8 -3 8Z" fill="#333451" opacity=".75"/></g><g transform="translate(212.8,126.2)"><circle r="22.8" fill="url(#blueberry)" stroke="#323253" stroke-width="2"/><circle cx="-5.5" cy="-6.6" r="4.3" fill="#b9bad8" opacity=".5"/><path d="M-5 3 0 -3 5 3 3 8 -3 8Z" fill="#333451" opacity=".75"/></g><g transform="translate(95.8,211.9)"><circle r="19.4" fill="url(#blueberry)" stroke="#323253" stroke-width="2"/><circle cx="-4.6" cy="-5.6" r="3.7" fill="#b9bad8" opacity=".5"/><path d="M-5 3 0 -3 5 3 3 8 -3 8Z" fill="#333451" opacity=".75"/></g><g transform="translate(103.4,149.6)"><circle r="18.9" fill="url(#blueberry)" stroke="#323253" stroke-width="2"/><circle cx="-4.5" cy="-5.5" r="3.6" fill="#b9bad8" opacity=".5"/><path d="M-5 3 0 -3 5 3 3 8 -3 8Z" fill="#333451" opacity=".75"/></g><g transform="translate(229.1,12.7)"><circle r="24.8" fill="url(#blueberry)" stroke="#323253" stroke-width="2"/><circle cx="-5.9" cy="-7.2" r="4.7" fill="#b9bad8" opacity=".5"/><path d="M-5 3 0 -3 5 3 3 8 -3 8Z" fill="#333451" opacity=".75"/></g><g transform="translate(163.5,54.0)"><circle r="16.5" fill="url(#blueberry)" stroke="#323253" stroke-width="2"/><circle cx="-4.0" cy="-4.8" r="3.1" fill="#b9bad8" opacity=".5"/><path d="M-5 3 0 -3 5 3 3 8 -3 8Z" fill="#333451" opacity=".75"/></g><g transform="translate(113.8,113.8)"><circle r="21.7" fill="url(#blueberry)" stroke="#323253" stroke-width="2"/><circle cx="-5.2" cy="-6.3" r="4.1" fill="#b9bad8" opacity=".5"/><path d="M-5 3 0 -3 5 3 3 8 -3 8Z" fill="#333451" opacity=".75"/></g><g transform="translate(69.8,193.4)"><circle r="21.2" fill="url(#blueberry)" stroke="#323253" stroke-width="2"/><circle cx="-5.1" cy="-6.1" r="4.0" fill="#b9bad8" opacity=".5"/><path d="M-5 3 0 -3 5 3 3 8 -3 8Z" fill="#333451" opacity=".75"/></g><g transform="translate(80.5,235.2)"><circle r="16.2" fill="url(#blueberry)" stroke="#323253" stroke-width="2"/><circle cx="-3.9" cy="-4.7" r="3.1" fill="#b9bad8" opacity=".5"/><path d="M-5 3 0 -3 5 3 3 8 -3 8Z" fill="#333451" opacity=".75"/></g><path d="M -58.6 -26.6 l 2 5" stroke="#fff4df" stroke-width="5" opacity=".72" stroke-linecap="round"/><path d="M -192.0 -172.5 l -1 1" stroke="#fff4df" stroke-width="3" opacity=".72" stroke-linecap="round"/><path d="M 146.0 45.3 l 3 -5" stroke="#fff4df" stroke-width="3" opacity=".72" stroke-linecap="round"/><path d="M -257.5 43.5 l 0 7" stroke="#fff4df" stroke-width="5" opacity=".72" stroke-linecap="round"/><path d="M -99.9 2.3 l -10 7" stroke="#fff4df" stroke-width="5" opacity=".72" stroke-linecap="round"/><path d="M 80.1 -36.8 l -9 2" stroke="#fff4df" stroke-width="4" opacity=".72" stroke-linecap="round"/><path d="M -26.1 -258.8 l 3 0" stroke="#fff4df" stroke-width="4" opacity=".72" stroke-linecap="round"/><path d="M 21.7 118.7 l 6 -4" stroke="#fff4df" stroke-width="5" opacity=".72" stroke-linecap="round"/><path d="M 232.7 76.0 l 0 8" stroke="#fff4df" stroke-width="5" opacity=".72" stroke-linecap="round"/><path d="M 154.2 203.2 l -8 -8" stroke="#fff4df" stroke-width="5" opacity=".72" stroke-linecap="round"/><path d="M -151.9 33.4 l -9 7" stroke="#fff4df" stroke-width="5" opacity=".72" stroke-linecap="round"/><path d="M 37.9 -100.3 l 4 2" stroke="#fff4df" stroke-width="2" opacity=".72" stroke-linecap="round"/><path d="M 63.5 160.7 l -7 -6" stroke="#fff4df" stroke-width="4" opacity=".72" stroke-linecap="round"/><path d="M -186.9 200.7 l 7 -2" stroke="#fff4df" stroke-width="3" opacity=".72" stroke-linecap="round"/><path d="M 145.6 240.5 l -8 -7" stroke="#fff4df" stroke-width="3" opacity=".72" stroke-linecap="round"/><path d="M -66.8 23.6 l 10 -6" stroke="#fff4df" stroke-width="4" opacity=".72" stroke-linecap="round"/><path d="M 30.4 88.0 l 0 6" stroke="#fff4df" stroke-width="2" opacity=".72" stroke-linecap="round"/><path d="M -235.4 150.0 l -11 1" stroke="#fff4df" stroke-width="5" opacity=".72" stroke-linecap="round"/><path d="M -72.1 7.4 l 2 4" stroke="#fff4df" stroke-width="2" opacity=".72" stroke-linecap="round"/><path d="M 189.9 -20.7 l -6 -1" stroke="#fff4df" stroke-width="3" opacity=".72" stroke-linecap="round"/><path d="M 269.3 156.5 l -10 7" stroke="#fff4df" stroke-width="4" opacity=".72" stroke-linecap="round"/><path d="M -311.5 27.9 l 1 -3" stroke="#fff4df" stroke-width="5" opacity=".72" stroke-linecap="round"/><path d="M -119.7 -129.3 l -7 4" stroke="#fff4df" stroke-width="2" opacity=".72" stroke-linecap="round"/><path d="M 12.6 275.7 l 8 -6" stroke="#fff4df" stroke-width="4" opacity=".72" stroke-linecap="round"/><path d="M 57.1 50.6 l -5 4" stroke="#fff4df" stroke-width="4" opacity=".72" stroke-linecap="round"/><path d="M 123.5 -9.8 l 10 -2" stroke="#fff4df" stroke-width="3" opacity=".72" stroke-linecap="round"/><path d="M -171.6 -132.6 l -1 -8" stroke="#fff4df" stroke-width="2" opacity=".72" stroke-linecap="round"/><path d="M 21.0 71.8 l 3 8" stroke="#fff4df" stroke-width="4" opacity=".72" stroke-linecap="round"/><path d="M 152.3 -179.0 l 0 6" stroke="#fff4df" stroke-width="4" opacity=".72" stroke-linecap="round"/><path d="M 252.1 53.1 l -7 8" stroke="#fff4df" stroke-width="2" opacity=".72" stroke-linecap="round"/><path d="M 64.7 -1.2 l -7 -5" stroke="#fff4df" stroke-width="2" opacity=".72" stroke-linecap="round"/><path d="M 225.4 -10.7 l 1 -6" stroke="#fff4df" stroke-width="2" opacity=".72" stroke-linecap="round"/><path d="M 247.2 37.7 l -3 3" stroke="#fff4df" stroke-width="3" opacity=".72" stroke-linecap="round"/><path d="M 71.4 116.2 l -7 0" stroke="#fff4df" stroke-width="4" opacity=".72" stroke-linecap="round"/><path d="M 245.3 -81.5 l -3 1" stroke="#fff4df" stroke-width="5" opacity=".72" stroke-linecap="round"/><path d="M -101.5 -199.3 l 6 -7" stroke="#fff4df" stroke-width="4" opacity=".72" stroke-linecap="round"/><path d="M -290.9 99.5 l 4 5" stroke="#fff4df" stroke-width="4" opacity=".72" stroke-linecap="round"/><path d="M 21.2 -87.8 l 6 -3" stroke="#fff4df" stroke-width="4" opacity=".72" stroke-linecap="round"/><path d="M 285.2 111.2 l 2 5" stroke="#fff4df" stroke-width="3" opacity=".72" stroke-linecap="round"/><path d="M -241.4 -12.8 l 0 -5" stroke="#fff4df" stroke-width="2" opacity=".72" stroke-linecap="round"/><path d="M -148.1 -7.6 l -6 0" stroke="#fff4df" stroke-width="3" opacity=".72" stroke-linecap="round"/><path d="M -270.9 -140.8 l -8 7" stroke="#fff4df" stroke-width="4" opacity=".72" stroke-linecap="round"/></g></svg>